<svg xmlns="http://www.w3.org/2000/svg" version="1.1" xmlns:xlink="http://www.w3.org/1999/xlink" xmlns:svgjs="http://svgjs.dev/svgjs" width="1000" height="1125" viewBox="0 0 1000 1125"><g transform="matrix(1,0,0,1,0,0)"><svg viewBox="0 0 320 360" data-background-color="#ffffff" preserveAspectRatio="xMidYMid meet" height="1125" width="1000" xmlns="http://www.w3.org/2000/svg" xmlns:xlink="http://www.w3.org/1999/xlink"><g id="tight-bounds" transform="matrix(1,0,0,1,0,0)"><svg viewBox="0 0 320 360" height="360" width="320"><g><svg></svg></g><g><svg viewBox="0 0 320 360" height="360" width="320"><g><path xmlns="http://www.w3.org/2000/svg" d="M159.823 340.15v0c-7.794 0-14.524-4.96-16.65-12.399-1.063-3.897-5.314-6.022-8.856-4.96-1.417 0.354-2.834 1.417-3.897 2.834-5.668 7.794-16.296 9.919-24.444 4.251-4.96-3.188-7.794-8.856-7.439-14.878 0-3.897-3.188-7.439-7.085-7.44-1.771 0-3.188 0.354-4.605 1.417-7.794 5.668-18.775 4.251-24.444-3.542-3.543-4.605-4.605-10.628-2.479-16.296 1.417-3.897-0.709-7.794-4.606-9.21-1.417-0.354-3.188-0.354-4.605 0-9.211 3.188-19.13-1.771-22.318-10.982-1.771-5.314-1.063-11.69 2.48-16.296 2.48-3.188 1.771-7.794-1.417-9.919-1.417-1.063-2.834-1.417-4.605-1.417-9.565 0.354-17.713-7.439-17.713-17.004 0-6.022 2.834-11.336 7.439-14.879 3.188-2.126 3.897-6.731 1.771-9.919-1.063-1.417-2.126-2.126-3.896-2.834-9.211-2.834-14.524-12.753-11.691-21.963 1.771-5.668 6.022-9.919 11.691-11.691 3.897-1.063 6.022-5.314 4.959-8.856-0.354-1.417-1.417-2.834-2.834-3.897-7.794-5.668-9.919-16.296-4.251-24.443 3.188-4.96 8.856-7.794 14.879-7.44 3.897 0 7.439-3.188 7.439-7.085 0-1.771-0.354-3.188-1.417-4.605-5.668-7.794-4.251-18.775 3.543-24.443 4.605-3.543 10.628-4.605 16.295-2.48 3.897 1.417 7.794-0.709 9.211-4.605 0.354-1.417 0.354-3.188 0-4.606-3.188-9.211 1.771-19.13 10.982-22.318 5.314-1.771 11.69-1.063 16.295 2.48 3.188 2.48 7.794 1.771 9.919-1.417 1.063-1.417 1.417-2.834 1.417-4.605-0.354-9.565 7.439-17.713 17.005-17.713 6.022 0 11.336 2.834 14.878 7.439 2.126 3.188 6.731 3.897 9.919 1.772 1.417-1.063 2.126-2.126 2.834-3.897 2.834-9.211 12.753-14.524 21.964-11.69 5.668 1.771 9.919 6.022 11.69 11.69v0c0.709 2.48 2.834 4.605 5.668 4.96 2.834 0.354 5.314-0.709 7.085-2.835 5.668-7.794 16.296-9.919 24.444-4.251 4.96 3.188 7.794 8.856 7.439 14.879 0 3.897 3.188 7.439 7.085 7.439 1.771 0 3.188-0.354 4.605-1.417 7.794-5.668 18.775-4.251 24.444 3.543 3.543 4.605 4.605 10.628 2.48 16.296-1.417 3.897 0.709 7.794 4.605 9.21 1.417 0.354 3.188 0.354 4.605 0 9.211-3.188 19.13 1.771 22.318 10.982 1.771 5.314 1.063 11.69-2.48 16.296-2.48 3.188-1.771 7.794 1.417 9.919 1.417 1.063 2.834 1.417 4.606 1.417 9.565-0.354 17.713 7.439 17.712 17.004 0 6.022-2.834 11.336-7.439 14.878-2.48 1.417-3.543 4.251-3.188 7.085 0.354 2.834 2.48 4.96 4.959 5.669 9.211 2.834 14.524 12.753 11.691 21.963-1.771 5.668-6.022 9.919-11.691 11.691-3.897 1.063-6.022 5.314-4.959 8.856 0.354 1.417 1.417 2.834 2.834 3.897 7.794 5.668 9.919 16.296 4.251 24.443-3.188 4.96-8.856 7.794-14.879 7.439-2.834 0-5.314 1.417-6.731 3.897-1.417 2.48-1.063 5.314 0.709 7.794 5.668 7.794 4.251 18.775-3.543 24.443-4.605 3.543-10.628 4.605-16.295 2.48-3.897-1.417-7.794 0.709-9.211 4.605-0.354 1.417-0.354 3.188 0 4.606 3.188 9.211-1.771 19.13-10.982 22.317-5.314 1.771-11.69 1.063-16.295-2.479-3.188-2.48-7.794-1.771-9.919 1.417-1.063 1.417-1.417 2.834-1.417 4.605 0.354 9.565-7.439 17.713-17.005 17.713-6.022 0-11.336-2.834-14.878-7.44-1.417-2.126-4.251-3.543-7.085-2.834-2.834 0.354-4.96 2.48-5.668 4.96-2.126 7.439-8.856 12.399-16.65 12.399zM136.088 312.518c1.063 0 1.771 0 2.834 0.354 6.731 1.063 12.045 5.668 13.816 12.045 1.063 3.897 5.314 6.022 8.856 4.605 2.126-0.709 3.897-2.48 4.605-4.605 2.834-9.211 12.753-14.524 21.964-11.691 3.543 1.063 7.085 3.543 9.211 6.731 2.48 3.188 6.731 3.897 10.273 1.417 1.771-1.417 2.834-3.543 2.834-5.668-0.354-9.565 7.439-17.713 17.004-17.712 3.897 0 7.794 1.063 10.982 3.542 3.188 2.48 7.794 1.771 9.919-1.417 1.417-1.771 1.771-4.605 1.063-6.731-3.188-9.211 1.417-19.13 10.627-22.318 3.897-1.417 7.794-1.417 11.691 0 3.897 1.417 7.794-0.709 9.21-4.605 0.709-2.126 0.354-4.96-1.062-6.731-5.668-7.794-4.251-18.775 3.542-24.443 3.188-2.48 7.085-3.543 10.982-3.543 3.897 0 7.085-3.188 7.439-7.085 0-2.48-1.063-4.605-3.188-6.022-7.794-5.668-9.919-16.296-4.251-24.443 2.126-3.188 5.314-5.668 9.211-6.731 3.897-1.063 6.022-5.314 4.605-8.857-0.709-2.126-2.48-3.897-4.605-4.605-9.211-2.834-14.524-12.753-11.691-21.964 1.063-3.543 3.543-7.085 6.731-9.21 3.188-2.48 3.897-7.085 1.417-10.273-1.417-1.771-3.543-2.834-5.668-2.834-9.565 0.354-17.713-7.439-17.713-17.005 0-3.897 1.063-7.794 3.543-10.981 2.48-3.188 1.771-7.794-1.417-9.92-1.771-1.417-4.605-1.771-6.731-1.062-9.211 3.188-19.13-1.417-22.318-10.628-1.417-3.897-1.417-7.794 0-11.69 1.417-3.897-0.709-7.794-4.605-9.211-2.126-0.709-4.96-0.354-6.731 1.063-7.794 5.668-18.775 4.251-24.443-3.543-2.48-3.188-3.543-7.085-3.543-10.981 0-3.897-3.188-7.085-7.439-7.085-2.126 0-4.605 1.063-5.668 2.834-5.668 7.794-16.296 9.919-24.444 4.251-3.188-2.126-5.668-5.314-6.731-9.211v0c-1.063-3.897-5.314-6.022-8.856-4.605-2.126 0.709-3.897 2.48-4.605 4.605-2.834 9.211-12.753 14.524-21.964 11.69-3.543-1.063-7.085-3.543-9.21-6.73-2.48-3.188-6.731-3.897-10.274-1.417-1.771 1.417-2.834 3.543-2.834 5.668 0.354 9.565-7.439 17.713-17.004 17.712-3.897 0-7.794-1.063-10.982-3.542-3.188-2.48-7.794-1.771-9.919 1.417-1.417 1.771-1.771 4.605-1.063 6.731 3.188 9.211-1.417 19.13-10.627 22.317-3.897 1.417-7.794 1.417-11.691 0-3.897-1.417-7.794 0.709-9.21 4.606-0.709 2.126-0.354 4.96 1.063 6.731 5.668 7.794 4.251 18.775-3.543 24.443-3.188 2.48-7.085 3.543-10.982 3.543-3.897 0-7.085 3.188-7.085 7.439 0 2.126 1.063 4.605 2.834 5.668 7.794 5.668 9.919 16.296 4.251 24.443-2.126 3.188-5.314 5.668-9.21 6.731-3.897 1.063-6.022 5.314-4.606 8.856 0.709 2.126 2.48 3.897 4.606 4.606 9.211 2.834 14.524 12.753 11.69 21.963-1.063 3.543-3.543 7.085-6.731 9.211-3.188 2.48-3.897 6.731-1.417 10.273 1.417 1.771 3.543 2.834 5.668 2.834 9.565-0.354 17.713 7.439 17.713 17.004 0 3.897-1.063 7.794-3.543 10.982-2.48 3.188-1.771 7.794 1.417 9.919 1.771 1.417 4.605 1.771 6.731 1.063 9.211-3.188 19.13 1.417 22.318 10.628 1.417 3.897 1.417 7.794 0 11.69-1.417 3.897 0.709 7.794 4.605 9.211 2.126 0.709 4.96 0.354 6.731-1.063 7.794-5.668 18.775-4.251 24.444 3.542 2.48 3.188 3.543 7.085 3.542 10.982 0 3.897 3.188 7.085 7.085 7.44 2.48 0 4.605-1.063 6.023-3.189 3.543-4.605 8.856-7.439 14.524-7.439z" fill="#010c80" fill-rule="nonzero" stroke="none" stroke-width="1" stroke-linecap="butt" stroke-linejoin="miter" stroke-miterlimit="10" stroke-dasharray="" stroke-dashoffset="0" font-family="none" font-weight="none" font-size="none" text-anchor="none" style="mix-blend-mode: normal" data-fill-palette-color="tertiary"></path></g><g transform="matrix(1,0,0,1,56,90.08999999999999)"><svg viewBox="0 0 208 179.82000000000002" height="179.82000000000002" width="208"><g><svg viewBox="0 0 208 179.82000000000002" height="179.82000000000002" width="208"><g><svg viewBox="0 0 208 179.82000000000002" height="179.82000000000002" width="208"><g><svg viewBox="0 0 208 179.82000000000002" height="179.82000000000002" width="208"><g><svg viewBox="0 0 208 179.82000000000002" height="179.82000000000002" width="208"><g transform="matrix(1,0,0,1,45.59853228626474,36.93002441959793)"><svg viewBox="0 0 116.80293542747052 105.95995116080417" height="105.95995116080417" width="116.80293542747052"><g><circle r="53" cx="58.40146771373526" cy="52.97997558040208" fill="#00ffef" data-fill-palette-color="accent"></circle><svg version="1.1" xmlns="http://www.w3.org/2000/svg" xmlns:xlink="http://www.w3.org/1999/xlink" x="18.38477631085024" y="18.38477631085024" viewBox="0 0 100 81.16600036621094" enable-background="new 0 0 100 81.166" xml:space="preserve" width="80.03338280577003" height="69.19039853910368" class="icon-o-0" data-fill-palette-color="quaternary" id="o-0"><path d="M87.043 0H50 12.957L0 23.557l50 57.609 50-57.609L87.043 0zM83.635 6.345l7.59 13.801h-13.64L83.635 6.345zM77.168 6.043l-5.537 12.636L57.792 6.043H77.168zM64.273 20.146H50 35.727L50 7.113 64.273 20.146zM42.208 6.043L28.37 18.679 22.832 6.043H42.208zM16.365 6.345l6.05 13.801H8.775L16.365 6.345zM10.288 26.189h14.776l15.078 34.399L10.288 26.189zM31.663 26.189H50h18.338L50 68.022 31.663 26.189zM59.857 60.589l15.078-34.399h14.777L59.857 60.589z" fill="#ffffff" data-fill-palette-color="quaternary"></path></svg></g></svg></g><path d="M34.163 65.353L33.858 65.471 31.794 64.484C31.949 63.883 32.043 63.477 32.074 63.267 32.106 63.056 32.089 62.906 32.024 62.816 31.954 62.717 31.801 62.621 31.564 62.529V62.529L31.083 62.406 30.042 62.173 29.227 64.099C29.127 64.355 28.908 65.046 28.57 66.172V66.172L29.586 66.859C29.833 67.02 30.006 67.12 30.106 67.159V67.159C30.324 67.244 30.483 67.252 30.582 67.182 30.674 67.11 30.786 66.906 30.918 66.569V66.569L31.177 65.904 31.506 65.806 33.536 66.823C33.418 67.072 33.203 67.567 32.893 68.309 32.586 69.059 32.269 69.856 31.941 70.699V70.699L30.646 74.077 28.515 73.042C28.604 72.372 28.306 71.76 27.623 71.206V71.206L16.485 62.231 18.676 55.417 19.125 55.15C20.273 55.302 22.531 55.588 25.897 56.008 29.257 56.425 31.571 56.705 32.839 56.846V56.846C33.471 56.92 33.964 56.893 34.316 56.764 34.666 56.641 34.933 56.389 35.117 56.008V56.008L35.436 55.938 37.363 56.915C37.27 57.152 37.08 57.614 36.791 58.299 36.509 58.987 36.221 59.709 35.927 60.464V60.464C35.538 61.463 35.168 62.459 34.817 63.451 34.473 64.445 34.255 65.079 34.163 65.353ZM25.691 64.124L26.194 62.831C26.299 62.563 26.455 62.117 26.662 61.493V61.493L21.888 60.626 21.669 61.188ZM39.352 53.832L37.483 52.15C37.807 51.532 37.909 51.023 37.787 50.625 37.661 50.232 37.269 49.792 36.612 49.306V49.306L29.228 43.845C28.781 43.514 28.444 43.344 28.218 43.335 27.997 43.33 27.775 43.478 27.552 43.78V43.78L27.152 44.371 26.701 44.338 25.193 42.947 27.792 39.433C28.361 38.663 28.977 37.802 29.64 36.85 30.302 35.898 30.766 35.225 31.033 34.831V34.831L32.995 36.657C32.503 37.468 32.242 38.058 32.211 38.427 32.174 38.791 32.341 39.123 32.712 39.422V39.422C34.785 41.181 37.236 43.106 40.064 45.197V45.197C40.398 45.444 40.683 45.56 40.92 45.543 41.157 45.527 41.383 45.374 41.598 45.083V45.083C41.997 44.544 42.203 44.068 42.218 43.654 42.237 43.234 42.044 42.779 41.64 42.289 41.236 41.798 40.553 41.151 39.589 40.347V40.347L41.374 37.343 41.896 37.329C42.182 37.607 42.862 38.226 43.935 39.187 44.998 40.148 46.134 41.142 47.341 42.168V42.168L47.449 42.748C47.15 43.119 46.497 43.94 45.49 45.211 44.483 46.483 43.501 47.765 42.545 49.058V49.058C41.856 49.989 41.193 50.948 40.555 51.935 39.921 52.916 39.52 53.548 39.352 53.832ZM57.237 34.202C55.201 35.829 53.132 36.496 51.029 36.204 48.932 35.907 47.024 34.684 45.305 32.533V32.533C43.382 30.125 42.572 27.771 42.877 25.469 43.178 23.162 44.574 21.014 47.065 19.023V19.023C47.657 18.551 48.305 18.102 49.011 17.675 49.716 17.249 50.327 16.902 50.843 16.636 51.354 16.364 51.678 16.195 51.814 16.13V16.13L52.381 16.372C52.434 16.492 52.572 16.772 52.795 17.211 53.017 17.651 53.34 18.221 53.762 18.921 54.188 19.627 54.675 20.365 55.223 21.136V21.136L52.1 23.94C52.054 23.883 51.957 23.746 51.81 23.529 51.662 23.312 51.463 23.047 51.212 22.733V22.733C50.794 22.21 50.421 21.925 50.092 21.878 49.76 21.827 49.353 21.994 48.871 22.378V22.378C48.28 22.851 47.909 23.331 47.759 23.82 47.619 24.309 47.689 24.875 47.97 25.516 48.255 26.163 48.776 26.96 49.533 27.907V27.907C50.821 29.519 51.928 30.551 52.855 31.003 53.787 31.45 54.64 31.364 55.414 30.745V30.745C55.645 30.561 55.828 30.389 55.966 30.228 56.099 30.062 56.19 29.924 56.24 29.815 56.291 29.707 56.317 29.638 56.321 29.61V29.61L55.254 28.275C54.983 27.935 54.752 27.742 54.561 27.697 54.376 27.648 54.147 27.732 53.875 27.949V27.949L53.195 28.531 52.769 28.383 51.408 26.165 54.658 23.568C55.197 23.138 55.704 22.715 56.179 22.301 56.66 21.883 56.966 21.596 57.098 21.439V21.439L58.295 22.502C58.113 22.973 58.037 23.377 58.066 23.713 58.09 24.055 58.256 24.466 58.565 24.949 58.868 25.435 59.41 26.168 60.192 27.147V27.147C60.836 27.953 61.371 28.52 61.797 28.849V28.849L61.821 29.395C61.83 29.406 61.662 29.647 61.319 30.118 60.975 30.59 60.463 31.183 59.783 31.899 59.106 32.619 58.258 33.387 57.237 34.202ZM74.617 24.069C72.192 25.077 70.05 25.151 68.191 24.291 66.335 23.422 64.862 21.673 63.769 19.044V19.044C62.602 16.236 62.41 13.791 63.192 11.711 63.974 9.63 65.695 8.037 68.356 6.932V6.932C70.83 5.904 72.975 5.803 74.792 6.63 76.605 7.45 78.062 9.185 79.162 11.832V11.832C80.337 14.659 80.53 17.133 79.742 19.252 78.954 21.371 77.246 22.977 74.617 24.069ZM73.788 20.714C74.506 20.416 74.885 19.888 74.926 19.131 74.963 18.383 74.676 17.273 74.064 15.8V15.8C73.424 14.26 72.849 13.077 72.34 12.251 71.83 11.426 71.332 10.882 70.845 10.62 70.353 10.36 69.822 10.348 69.253 10.585V10.585C68.548 10.878 68.177 11.391 68.141 12.124 68.105 12.858 68.392 13.96 69.004 15.433V15.433C69.644 16.973 70.22 18.159 70.733 18.991 71.248 19.829 71.747 20.383 72.229 20.654 72.718 20.923 73.238 20.943 73.788 20.714ZM86.506 19.639L86.495 17.318C87.201 17.102 87.654 16.839 87.853 16.531 88.052 16.222 88.115 15.688 88.042 14.928V14.928L87.14 5.566C87.087 5.012 86.988 4.648 86.843 4.474 86.699 4.306 86.437 4.24 86.057 4.277V4.277L85.36 4.374 85.083 4.017 85.098 1.967 88.589 1.63C89.295 1.562 91.085 1.346 93.957 0.982V0.982L94.001 3.431C93.439 3.6 93.079 3.776 92.921 3.959 92.765 4.149 92.693 4.489 92.707 4.979V4.979L92.862 8.265 95.17 8.124C96.07 8.037 96.824 7.938 97.433 7.825V7.825L97.123 4.605C97.071 4.064 96.972 3.707 96.828 3.533 96.682 3.351 96.42 3.279 96.039 3.316V3.316L95.312 3.416 95.036 3.059 95.05 1.008 99.411 0.588C99.264 0.603 100.595 0.441 103.402 0.103V0.103L104.16 0 104.199 2.399C103.556 2.568 103.139 2.753 102.95 2.953 102.761 3.153 102.68 3.507 102.709 4.016V4.016C102.739 5.029 102.81 6.396 102.922 8.114 103.027 9.834 103.159 11.524 103.319 13.184V13.184C103.403 14.051 103.533 14.634 103.71 14.933 103.887 15.233 104.182 15.363 104.595 15.323V15.323C104.775 15.305 105.026 15.254 105.348 15.169V15.169L105.587 15.449 105.562 17.713C104.005 17.829 102.463 17.961 100.936 18.108V18.108L96.448 18.57 96.431 16.189C97.083 16.113 97.528 15.909 97.765 15.576 98.009 15.243 98.095 14.707 98.024 13.967V13.967L97.758 11.206 96.155 11.33C95.655 11.378 94.646 11.559 93.128 11.874V11.874L93.388 14.574C93.462 15.335 93.566 15.829 93.703 16.058 93.847 16.294 94.089 16.395 94.429 16.362V16.362C94.735 16.333 94.976 16.282 95.151 16.212V16.212L95.397 16.461 95.366 18.755C93.451 18.866 91.988 18.969 90.974 19.067V19.067C90.094 19.152 88.605 19.342 86.507 19.638ZM117.196 19.872C114.924 19.412 113.353 18.63 112.483 17.524 111.621 16.414 111.387 14.883 111.782 12.933V12.933L113.431 4.778C113.549 4.194 113.578 3.8 113.516 3.596 113.456 3.386 113.275 3.25 112.973 3.189V3.189C112.809 3.156 112.653 3.134 112.504 3.125 112.349 3.114 112.242 3.102 112.183 3.09V3.09L112.156 2.972 112.902 0.652C113.2 0.733 113.787 0.872 114.663 1.07 115.54 1.261 116.52 1.466 117.604 1.685V1.685C118.26 1.818 118.956 1.945 119.69 2.066 120.417 2.186 120.917 2.266 121.189 2.308V2.308L120.423 4.726C119.956 4.673 119.606 4.728 119.374 4.893 119.149 5.06 118.984 5.354 118.878 5.777V5.777L117.165 13.437C116.988 14.311 117.027 15.029 117.282 15.594 117.536 16.164 117.991 16.516 118.648 16.649V16.649C119.324 16.786 119.851 16.697 120.229 16.384 120.606 16.071 120.878 15.507 121.042 14.693V14.693L122.64 6.64C122.75 6.095 122.777 5.711 122.719 5.488 122.663 5.258 122.504 5.116 122.241 5.063V5.063C122.097 5.034 121.967 5.018 121.851 5.015 121.729 5.011 121.652 5.005 121.619 4.999V4.999L121.562 4.874 122.328 2.558C122.577 2.609 123.018 2.712 123.649 2.867 124.287 3.023 124.908 3.162 125.513 3.285V3.285C126.366 3.457 127.155 3.61 127.88 3.743 128.613 3.871 129.106 3.95 129.36 3.981V3.981L128.667 6.342C128.08 6.408 127.696 6.494 127.518 6.602 127.337 6.716 127.215 6.933 127.15 7.255V7.255L125.632 14.76C125.194 16.927 124.262 18.44 122.837 19.301 121.421 20.155 119.54 20.346 117.196 19.872ZM134.272 25.354C133.429 24.941 132.687 24.485 132.045 23.984 131.405 23.477 130.899 23.017 130.527 22.604 130.155 22.19 129.974 21.975 129.983 21.957V21.957L129.897 21.378C130.075 21.136 130.445 20.609 131.007 19.795 131.569 18.982 132.029 18.248 132.386 17.595V17.595L135.57 18.885C135.149 19.745 135.017 20.464 135.174 21.041 135.341 21.615 135.782 22.077 136.498 22.427V22.427C136.998 22.672 137.436 22.774 137.813 22.735 138.184 22.693 138.445 22.519 138.595 22.212V22.212C138.787 21.821 138.744 21.39 138.468 20.918 138.194 20.456 137.715 19.834 137.032 19.052V19.052L136.26 18.137C135.37 17.075 134.758 16.033 134.422 15.012 134.087 13.99 134.198 12.91 134.754 11.773V11.773C135.264 10.732 136.026 9.968 137.04 9.48 138.052 8.998 139.228 8.82 140.568 8.947 141.911 9.067 143.332 9.494 144.83 10.227V10.227C145.625 10.616 146.344 11.028 146.989 11.463 147.634 11.898 148.136 12.274 148.495 12.592 148.854 12.909 149.073 13.109 149.152 13.193V13.193L149.18 13.866C149.02 14.072 148.657 14.562 148.091 15.336 147.523 16.102 146.972 16.922 146.44 17.795V17.795L143.523 16.602 143.318 16.267 143.512 15.869C144.069 14.732 143.754 13.874 142.569 13.293V13.293C142.112 13.07 141.691 12.991 141.309 13.057 140.926 13.123 140.655 13.319 140.496 13.643V13.643C140.298 14.047 140.336 14.472 140.61 14.919 140.883 15.366 141.378 16.007 142.096 16.843V16.843L142.5 17.321C143.165 18.064 143.703 18.763 144.113 19.419 144.517 20.072 144.771 20.786 144.877 21.561 144.979 22.342 144.825 23.154 144.412 23.996V23.996C143.894 25.055 143.138 25.815 142.144 26.276 141.15 26.736 139.982 26.892 138.638 26.741 137.292 26.582 135.836 26.119 134.272 25.354ZM149.66 35.097C148.945 34.491 148.337 33.867 147.837 33.224 147.341 32.576 146.963 32.006 146.704 31.514 146.444 31.022 146.321 30.769 146.334 30.754V30.754L146.392 30.171C146.624 29.981 147.112 29.56 147.856 28.909 148.601 28.258 149.226 27.659 149.732 27.113V27.113L152.503 29.143C151.884 29.874 151.58 30.539 151.592 31.137 151.613 31.734 151.928 32.29 152.536 32.805V32.805C152.96 33.165 153.36 33.371 153.735 33.426 154.106 33.476 154.401 33.371 154.622 33.11V33.11C154.903 32.777 154.967 32.349 154.815 31.825 154.662 31.31 154.351 30.589 153.879 29.664V29.664L153.355 28.588C152.752 27.34 152.414 26.18 152.339 25.107 152.264 24.034 152.636 23.015 153.454 22.049V22.049C154.203 21.164 155.129 20.609 156.232 20.385 157.331 20.165 158.514 20.281 159.783 20.732 161.056 21.177 162.329 21.939 163.602 23.017V23.017C164.276 23.588 164.873 24.164 165.392 24.743 165.911 25.323 166.305 25.811 166.576 26.207 166.846 26.602 167.009 26.85 167.065 26.95V26.95L166.928 27.61C166.722 27.77 166.25 28.156 165.512 28.769 164.773 29.372 164.039 30.032 163.31 30.749V30.749L160.773 28.877 160.656 28.502 160.942 28.164C161.76 27.198 161.665 26.289 160.658 25.436V25.436C160.27 25.107 159.882 24.928 159.494 24.898 159.107 24.868 158.796 24.992 158.562 25.268V25.268C158.272 25.61 158.205 26.032 158.361 26.532 158.516 27.033 158.839 27.776 159.33 28.762V28.762L159.605 29.324C160.068 30.207 160.418 31.017 160.655 31.753 160.887 32.485 160.959 33.239 160.872 34.017 160.78 34.799 160.431 35.548 159.825 36.264V36.264C159.063 37.164 158.144 37.716 157.067 37.919 155.991 38.122 154.82 37.987 153.554 37.512 152.288 37.028 150.99 36.223 149.66 35.097ZM158.912 43.645L161.092 42.394C161.579 42.895 162.031 43.15 162.447 43.158 162.86 43.161 163.4 42.926 164.066 42.454V42.454L171.558 37.141C172.012 36.82 172.278 36.553 172.358 36.34 172.432 36.132 172.36 35.875 172.143 35.569V35.569L171.706 35.004 171.878 34.587 173.67 33.587 176.198 37.153C176.752 37.934 177.378 38.788 178.076 39.714 178.773 40.64 179.268 41.291 179.56 41.667V41.667L177.213 42.962C176.596 42.242 176.117 41.809 175.776 41.665 175.441 41.516 175.074 41.572 174.674 41.83V41.83C172.356 43.252 169.763 44.98 166.894 47.015V47.015C166.555 47.255 166.356 47.49 166.298 47.72 166.24 47.951 166.315 48.213 166.524 48.508V48.508C166.912 49.055 167.3 49.4 167.689 49.543 168.081 49.691 168.574 49.65 169.166 49.419 169.758 49.189 170.586 48.741 171.65 48.076V48.076L173.948 50.709 173.798 51.21C173.445 51.395 172.645 51.847 171.398 52.567 170.152 53.278 168.854 54.046 167.502 54.873V54.873L166.917 54.796C166.658 54.396 166.082 53.519 165.188 52.166 164.294 50.812 163.382 49.48 162.452 48.168V48.168C161.782 47.223 161.077 46.294 160.339 45.38 159.605 44.472 159.129 43.893 158.912 43.645ZM180.636 70.97L180.365 71.417C178.764 71.694 176.93 72.117 174.86 72.686V72.686L174.314 72.463C173.353 69.568 172.382 66.826 171.402 64.239V64.239C170.773 62.579 170.01 60.823 169.115 58.97V58.97L171.54 58.309C171.885 58.916 172.258 59.276 172.659 59.389 173.057 59.496 173.639 59.405 174.403 59.115V59.115L182.927 55.918C183.485 55.706 183.835 55.524 183.977 55.37 184.128 55.219 184.148 55 184.039 54.712V54.712C183.949 54.474 183.847 54.262 183.734 54.075V54.075L183.973 53.63 186.073 53.103C186.201 53.441 186.29 53.705 186.34 53.894V53.894C187.092 55.973 187.726 57.692 188.241 59.051V59.051C188.844 60.643 189.451 62.16 190.063 63.605 190.675 65.049 191.159 66.109 191.515 66.784V66.784L191.235 67.266C190.49 67.398 189.614 67.59 188.606 67.843 187.599 68.095 186.716 68.347 185.959 68.599V68.599L184.396 65.183 185.354 64.874C185.748 64.724 186.019 64.55 186.166 64.351 186.312 64.152 186.357 63.863 186.299 63.484 186.244 63.111 186.081 62.567 185.81 61.853V61.853C185.677 61.502 185.549 61.286 185.424 61.204 185.294 61.124 185.085 61.139 184.797 61.248V61.248L181.864 62.188 182.636 64.281C182.892 64.957 183.295 65.869 183.844 67.015V67.015L183.604 67.46 180.547 68.21C179.979 66.562 179.619 65.535 179.465 65.128V65.128C179.332 64.777 179.042 64.163 178.595 63.287V63.287L176.423 64.077C175.966 64.251 175.641 64.406 175.45 64.543 175.267 64.684 175.172 64.849 175.164 65.038 175.155 65.221 175.221 65.5 175.364 65.876V65.876C175.651 66.634 175.935 67.175 176.215 67.498 176.486 67.818 176.838 68 177.271 68.044 177.707 68.079 178.341 67.996 179.175 67.795V67.795ZM20.447 119.326C20.26 118.796 20.006 118.136 19.685 117.347 19.356 116.553 19.141 116.033 19.039 115.784V115.784L20.894 115.334C21.165 115.821 21.434 116.12 21.701 116.232 21.961 116.346 22.328 116.32 22.802 116.153V116.153L29.898 113.675C30.505 113.461 30.746 113.178 30.621 112.824V112.824C30.574 112.691 30.521 112.561 30.462 112.432 30.403 112.304 30.364 112.215 30.346 112.164V112.164L30.5 111.844 32.166 111.523 33.306 114.882C33.524 115.459 33.792 116.15 34.11 116.954 34.435 117.755 34.662 118.318 34.791 118.642V118.642C35.314 120.127 35.441 121.346 35.173 122.3 34.906 123.254 34.263 123.91 33.246 124.268V124.268C32.57 124.506 31.935 124.538 31.34 124.364 30.744 124.183 30.142 123.866 29.535 123.412V123.412C29.532 124.251 29.396 124.974 29.127 125.58 28.857 126.187 28.325 126.63 27.528 126.91V126.91C24.767 127.883 22.716 126.464 21.374 122.654V122.654C21.309 122.35 21.164 121.787 20.938 120.964 20.704 120.138 20.54 119.592 20.447 119.326ZM28.833 118.514C28.85 118.643 28.892 118.905 28.96 119.3 29.037 119.699 29.108 119.991 29.172 120.174V120.174C29.147 120.183 29.237 120.236 29.442 120.334 29.647 120.433 29.895 120.502 30.186 120.541 30.47 120.583 30.774 120.547 31.096 120.434V120.434C31.557 120.271 31.84 119.994 31.943 119.603 32.053 119.209 31.993 118.686 31.764 118.036V118.036C31.717 117.903 31.667 117.821 31.614 117.79 31.554 117.762 31.471 117.759 31.366 117.782V117.782C30.995 117.877 30.522 118.008 29.949 118.174 29.375 118.341 29.003 118.454 28.833 118.514ZM26.26 119.378L24.243 119.971C23.927 120.082 23.737 120.28 23.674 120.565 23.609 120.844 23.665 121.236 23.844 121.742V121.742C24.015 122.228 24.265 122.555 24.594 122.724 24.93 122.89 25.334 122.889 25.808 122.722V122.722C26.143 122.604 26.395 122.391 26.563 122.083 26.74 121.78 26.823 121.399 26.811 120.941V120.941ZM27.052 135.151C26.177 133.584 25.848 132.267 26.066 131.201 26.275 130.133 27.052 129.223 28.398 128.472V128.472L34.021 125.332C34.425 125.106 34.673 124.925 34.766 124.789 34.855 124.647 34.843 124.474 34.728 124.269V124.269C34.666 124.158 34.6 124.053 34.53 123.954 34.459 123.856 34.414 123.789 34.395 123.753V123.753L34.445 123.679 36.18 122.952C36.286 123.169 36.501 123.582 36.826 124.191 37.154 124.806 37.525 125.485 37.94 126.228V126.228C38.195 126.684 38.471 127.159 38.77 127.652 39.065 128.139 39.271 128.473 39.387 128.654V128.654L37.582 129.42C37.379 129.111 37.168 128.933 36.95 128.886 36.738 128.836 36.483 128.887 36.184 129.038V129.038L30.817 131.897C30.22 132.231 29.818 132.616 29.61 133.055 29.408 133.49 29.433 133.932 29.684 134.383V134.383C29.943 134.845 30.259 135.109 30.634 135.176 31.009 135.243 31.477 135.12 32.039 134.806V134.806L37.573 131.692C37.954 131.48 38.194 131.299 38.295 131.151 38.4 131.008 38.4 130.843 38.295 130.656V130.656C38.24 130.556 38.185 130.472 38.131 130.402 38.073 130.327 38.038 130.278 38.025 130.254V130.254L38.066 130.163 39.81 129.453C39.905 129.623 40.066 129.932 40.294 130.38 40.524 130.834 40.756 131.269 40.987 131.684V131.684C41.314 132.269 41.624 132.81 41.916 133.306 42.209 133.803 42.408 134.133 42.515 134.296V134.296L40.782 135.068C40.45 134.762 40.205 134.584 40.047 134.535 39.895 134.482 39.707 134.517 39.485 134.641V134.641L34.309 137.532C32.812 138.368 31.455 138.585 30.24 138.181 29.02 137.781 27.957 136.771 27.052 135.151ZM31.035 141.808L32.568 140.891C33.004 141.269 33.366 141.461 33.652 141.466 33.934 141.475 34.306 141.309 34.77 140.967V140.967L40.629 136.654C40.979 136.396 41.184 136.187 41.241 136.028 41.295 135.864 41.234 135.663 41.06 135.426V135.426L40.722 135.001 40.843 134.674 42.209 133.868 44.217 136.595C44.419 136.87 45.161 137.822 46.442 139.449V139.449L44.838 140.456C44.498 140.107 44.232 139.916 44.041 139.882 43.846 139.842 43.579 139.927 43.241 140.134V140.134C41.205 141.458 39.164 142.873 37.12 144.379V144.379C36.65 144.724 36.365 144.992 36.264 145.183 36.169 145.37 36.199 145.568 36.354 145.779V145.779C36.512 145.994 36.662 146.163 36.801 146.285V146.285L36.733 146.548 35.203 147.437C34.333 146.164 33.661 145.207 33.189 144.565V144.565C32.74 143.955 32.022 143.036 31.035 141.808ZM36.015 148.59L37.557 147.398C37.983 147.733 38.356 147.879 38.674 147.836 38.993 147.793 39.381 147.556 39.839 147.124V147.124L45.007 142.249C45.324 141.95 45.499 141.716 45.533 141.546 45.57 141.381 45.488 141.192 45.286 140.977V140.977L44.892 140.589 44.98 140.258 46.238 139.292 48.562 141.755C49.072 142.296 49.645 142.884 50.28 143.518 50.916 144.153 51.362 144.597 51.62 144.851V144.851L49.963 146.097C49.418 145.616 49.007 145.337 48.73 145.257 48.452 145.178 48.178 145.258 47.905 145.496V145.496C46.279 146.838 44.476 148.441 42.498 150.308V150.308C42.264 150.528 42.137 150.731 42.117 150.915 42.098 151.099 42.185 151.294 42.378 151.498V151.498C42.732 151.873 43.066 152.096 43.382 152.167 43.697 152.238 44.069 152.154 44.498 151.915 44.922 151.672 45.508 151.239 46.256 150.616V150.616L48.301 152.389 48.247 152.785C47.991 152.963 47.424 153.396 46.546 154.086 45.668 154.767 44.756 155.494 43.809 156.267V156.267L43.347 156.275C43.109 156.003 42.574 155.392 41.744 154.444 40.914 153.505 40.071 152.583 39.216 151.676V151.676C38.6 151.023 37.963 150.386 37.303 149.765 36.639 149.149 36.209 148.757 36.015 148.59ZM49.82 161.614C49.656 161.454 49.307 161.122 48.774 160.618 48.236 160.119 47.753 159.704 47.323 159.373V159.373C46.936 159.074 46.465 158.741 45.911 158.373 45.358 158.015 45.001 157.782 44.839 157.674V157.674L46.162 156.22C46.636 156.483 47.023 156.574 47.323 156.492 47.623 156.411 47.952 156.136 48.312 155.669V155.669L52.612 150.09C52.878 149.745 53.031 149.486 53.071 149.314 53.105 149.138 53.045 148.99 52.892 148.872V148.872C52.769 148.778 52.654 148.697 52.545 148.63 52.432 148.568 52.359 148.525 52.328 148.5V148.5L52.344 148.133 53.532 146.904C53.734 147.06 54.086 147.344 54.588 147.756 55.091 148.169 55.57 148.551 56.027 148.903V148.903C56.35 149.152 56.849 149.515 57.522 149.992 58.2 150.472 58.649 150.784 58.868 150.928V150.928C60.614 152.273 61.605 153.709 61.84 155.236 62.078 156.772 61.56 158.365 60.288 160.015V160.015C59.336 161.251 58.273 162.141 57.102 162.684 55.926 163.233 54.713 163.419 53.463 163.242 52.207 163.06 50.993 162.518 49.82 161.614ZM56.639 152.585C56.517 152.491 56.406 152.46 56.305 152.492 56.203 152.515 56.081 152.607 55.94 152.769V152.769C54.605 154.269 53.108 156.097 51.448 158.251V158.251C51.198 158.575 51.073 158.825 51.072 159.002 51.071 159.178 51.188 159.357 51.421 159.537V159.537C52.143 160.093 52.85 160.228 53.544 159.943 54.239 159.666 55.053 158.923 55.985 157.713V157.713C56.697 156.79 57.183 156.027 57.444 155.425 57.7 154.819 57.764 154.297 57.636 153.86 57.507 153.423 57.175 152.998 56.639 152.585ZM65.312 171.227C63.56 170.372 62.455 169.17 61.996 167.619 61.531 166.066 61.766 164.332 62.7 162.417V162.417C63.73 160.304 65.098 158.959 66.803 158.382 68.499 157.807 70.413 158.04 72.545 159.08V159.08C73.02 159.312 73.539 159.609 74.099 159.972 74.651 160.338 75.122 160.665 75.511 160.951 75.904 161.232 76.157 161.415 76.272 161.501V161.501L76.24 161.955C76.172 162.034 76.02 162.239 75.783 162.571 75.538 162.906 75.226 163.354 74.848 163.915 74.479 164.473 74.111 165.083 73.743 165.746V165.746L70.742 164.495C70.774 164.429 70.842 164.305 70.945 164.124 71.048 163.944 71.167 163.715 71.302 163.438V163.438C71.549 162.932 71.629 162.524 71.542 162.213 71.452 161.908 71.166 161.639 70.685 161.404V161.404C70.233 161.183 69.835 161.112 69.492 161.191 69.145 161.275 68.803 161.526 68.465 161.942 68.131 162.368 67.758 163.002 67.347 163.845V163.845C66.66 165.254 66.302 166.362 66.275 167.168 66.247 167.974 66.549 168.532 67.181 168.84V168.84C67.657 169.072 68.088 169.081 68.475 168.868 68.86 168.645 69.282 168.147 69.741 167.372V167.372L72.724 168.592C72.577 168.833 72.266 169.356 71.791 170.161 71.323 170.968 70.904 171.751 70.534 172.51V172.51L70.145 172.689C70.01 172.675 69.71 172.626 69.244 172.541 68.782 172.449 68.19 172.295 67.469 172.077 66.748 171.86 66.029 171.576 65.312 171.227ZM78.015 176.108C76.07 175.526 74.749 174.52 74.051 173.088 73.358 171.664 73.327 169.896 73.958 167.784V167.784C74.633 165.525 75.715 163.964 77.203 163.101 78.692 162.239 80.505 162.127 82.642 162.766V162.766C84.625 163.358 85.96 164.344 86.645 165.724 87.329 167.11 87.354 168.862 86.721 170.98V170.98C86.042 173.252 84.947 174.834 83.436 175.725 81.934 176.611 80.127 176.739 78.015 176.108ZM79.16 173.681C79.737 173.854 80.22 173.725 80.607 173.295 81.002 172.861 81.376 172.054 81.729 170.873V170.873C82.098 169.64 82.331 168.651 82.428 167.904 82.532 167.158 82.499 166.589 82.33 166.196 82.161 165.803 81.848 165.538 81.393 165.402V165.402C80.828 165.233 80.354 165.357 79.97 165.774 79.594 166.193 79.228 166.996 78.873 168.184V168.184C78.505 169.416 78.268 170.408 78.162 171.159 78.063 171.913 78.093 172.488 78.254 172.886 78.415 173.284 78.717 173.549 79.16 173.681ZM92.206 179.077C90.423 178.861 89.166 178.351 88.433 177.547 87.693 176.749 87.416 175.585 87.601 174.056V174.056L88.376 167.661C88.431 167.202 88.431 166.895 88.376 166.74 88.314 166.584 88.166 166.492 87.934 166.464V166.464C87.807 166.449 87.683 166.44 87.562 166.439 87.441 166.438 87.36 166.435 87.32 166.43V166.43L87.29 166.345 87.724 164.515C87.962 164.558 88.423 164.627 89.106 164.723 89.796 164.82 90.563 164.92 91.408 165.022V165.022C91.927 165.085 92.473 165.141 93.048 165.19 93.615 165.239 94.006 165.269 94.221 165.282V165.282L93.777 167.192C93.408 167.174 93.14 167.24 92.974 167.388 92.808 167.53 92.698 167.766 92.645 168.097V168.097L91.794 174.118C91.712 174.796 91.787 175.349 92.019 175.775 92.251 176.194 92.623 176.435 93.136 176.497V176.497C93.661 176.561 94.061 176.461 94.336 176.197 94.611 175.934 94.787 175.483 94.864 174.844V174.844L95.608 168.537C95.66 168.105 95.656 167.804 95.596 167.635 95.542 167.466 95.409 167.369 95.196 167.343V167.343C95.083 167.33 94.982 167.324 94.894 167.327 94.799 167.329 94.739 167.329 94.712 167.325V167.325L94.662 167.238 95.116 165.411C95.309 165.434 95.654 165.486 96.15 165.566 96.653 165.647 97.141 165.717 97.613 165.774V165.774C98.278 165.854 98.897 165.923 99.471 165.979 100.044 166.035 100.428 166.068 100.623 166.078V166.078L100.226 167.933C99.783 168.021 99.495 168.114 99.362 168.213 99.229 168.304 99.148 168.477 99.117 168.729V168.729L98.404 174.615C98.198 176.318 97.574 177.541 96.533 178.285 95.49 179.036 94.048 179.3 92.206 179.077ZM109.872 179.384C108.808 177.811 107.822 176.399 106.915 175.146 106.015 173.887 105.442 173.089 105.196 172.754V172.754L104.885 172.771 105.147 176.5C105.183 176.907 105.262 177.185 105.384 177.332 105.506 177.48 105.721 177.546 106.028 177.529V177.529C106.162 177.522 106.299 177.504 106.438 177.477 106.577 177.449 106.677 177.427 106.736 177.41V177.41L106.937 177.58 106.803 179.379C106.548 179.379 106.089 179.387 105.425 179.403 104.769 179.419 104.146 179.442 103.557 179.474V179.474C102.955 179.507 102.318 179.565 101.645 179.648 100.965 179.739 100.529 179.796 100.336 179.82V179.82L100.444 177.912C100.849 177.837 101.14 177.693 101.316 177.482 101.492 177.265 101.576 176.948 101.566 176.533V176.533L101.42 169.185C101.402 168.85 101.351 168.601 101.269 168.438 101.179 168.275 101.025 168.159 100.807 168.091 100.582 168.029 100.237 167.981 99.773 167.946V167.946L99.506 167.668 99.545 165.965C99.726 165.969 100.128 165.967 100.752 165.96 101.375 165.953 102.008 165.933 102.65 165.898V165.898C103.132 165.872 103.657 165.833 104.224 165.782 104.798 165.731 105.169 165.694 105.335 165.672V165.672C106.201 167.04 107.15 168.465 108.183 169.945 109.216 171.425 109.732 172.152 109.73 172.125V172.125L110.051 172.108 109.753 168.27C109.721 167.923 109.651 167.689 109.544 167.567 109.443 167.445 109.266 167.391 109.012 167.405V167.405L108.359 167.44 108.247 167.215 108.255 165.513C108.51 165.513 108.979 165.504 109.662 165.487 110.352 165.47 111.049 165.442 111.751 165.404V165.404C112.38 165.37 112.975 165.331 113.536 165.287 114.09 165.244 114.468 165.21 114.668 165.186V165.186L114.66 167.078C114.214 167.156 113.91 167.3 113.747 167.51 113.584 167.713 113.507 168.033 113.517 168.468V168.468L113.802 178.919ZM118.187 178.435L117.915 176.508C118.477 176.322 118.886 176.145 119.142 175.975 119.4 175.812 119.557 175.6 119.614 175.34 119.664 175.081 119.638 174.732 119.537 174.295V174.295L117.835 166.964C117.457 167.051 117.189 167.186 117.031 167.367 116.881 167.546 116.807 167.838 116.812 168.243 116.808 168.643 116.866 169.262 116.985 170.101V170.101L114.488 170.855C114.202 169.237 113.842 167.433 113.408 165.443V165.443L113.606 165.098 116.096 164.757 122.527 163.265 124.951 162.465 125.291 162.686C125.853 164.99 126.289 166.718 126.597 167.87V167.87L124.091 168.627C123.806 167.696 123.577 167.048 123.402 166.683 123.233 166.309 123.053 166.08 122.861 165.993 122.669 165.907 122.381 165.909 121.995 165.998V165.998C122.507 168.5 123.054 171.007 123.637 173.519V173.519C123.759 174.041 123.922 174.388 124.127 174.561 124.333 174.74 124.632 174.784 125.024 174.693V174.693C125.272 174.635 125.616 174.532 126.055 174.381V174.381L126.193 174.484 126.454 176.455C124.633 176.788 123.237 177.068 122.264 177.293V177.293C121.364 177.502 120.005 177.883 118.187 178.435ZM142.357 170.335C141.821 170.58 141.325 170.648 140.87 170.539 140.407 170.427 139.91 170.113 139.379 169.597V169.597L136.864 167.21 135.786 167.703 136.378 169.001C136.571 169.421 136.736 169.703 136.875 169.846 137.01 169.997 137.183 170.062 137.394 170.039 137.601 170.026 137.927 169.932 138.371 169.759V169.759L138.533 169.872 139.081 171.556C138.819 171.66 138.362 171.851 137.707 172.128 137.053 172.404 136.452 172.668 135.903 172.919V172.919C135.318 173.186 134.685 173.501 134.004 173.863 133.325 174.232 132.882 174.479 132.674 174.603V174.603L132.042 172.76C132.484 172.47 132.739 172.166 132.807 171.847 132.875 171.529 132.787 171.102 132.542 170.565V170.565L129.511 163.929C129.366 163.613 129.232 163.409 129.11 163.317 128.981 163.229 128.822 163.228 128.633 163.314V163.314C128.481 163.384 128.344 163.454 128.221 163.524 128.099 163.595 128.019 163.639 127.983 163.655V163.655L127.686 163.514 127.208 161.91 129.931 160.689C130.315 160.513 130.923 160.217 131.756 159.8 132.589 159.382 133.142 159.101 133.414 158.954V158.954C136.936 157.346 139.245 157.742 140.342 160.143V160.143C141.029 161.648 140.811 163.202 139.687 164.805V164.805L141.786 166.255C142.371 166.65 142.885 166.92 143.327 167.065 143.768 167.209 144.129 167.217 144.409 167.089V167.089L144.762 167.304 145.222 168.773ZM136.289 164.789C136.64 164.414 136.836 164.045 136.876 163.681 136.916 163.316 136.813 162.866 136.568 162.33V162.33C136.318 161.781 135.961 161.459 135.496 161.361 135.026 161.267 134.422 161.388 133.685 161.725V161.725C133.557 161.783 133.486 161.845 133.472 161.911 133.454 161.985 133.479 162.113 133.548 162.295V162.295C133.882 163.189 134.282 164.177 134.748 165.261V165.261ZM153.395 157.424L153.785 157.537C154.272 158.695 154.913 160.003 155.708 161.463V161.463L155.64 161.92C153.627 163.152 151.731 164.365 149.951 165.561V165.561C148.811 166.327 147.622 167.211 146.382 168.213V168.213L145.459 166.497C145.859 166.131 146.064 165.787 146.074 165.466 146.084 165.144 145.913 164.722 145.562 164.2V164.2L141.651 158.342C141.393 157.958 141.195 157.724 141.057 157.639 140.914 157.557 140.745 157.582 140.55 157.713V157.713C140.384 157.825 140.238 157.939 140.114 158.054V158.054L139.743 157.953 138.977 156.47C139.21 156.313 139.395 156.197 139.53 156.122V156.122C140.963 155.192 142.147 154.413 143.081 153.785V153.785C144.171 153.053 145.206 152.329 146.186 151.614 147.163 150.894 147.877 150.341 148.329 149.957V149.957L148.739 150.081C148.971 150.619 149.271 151.245 149.638 151.959 150.008 152.678 150.354 153.301 150.675 153.828V153.828L148.38 155.6 147.976 154.927C147.797 154.66 147.618 154.49 147.439 154.416 147.26 154.343 147.035 154.361 146.762 154.472 146.486 154.577 146.106 154.792 145.622 155.117V155.117C145.377 155.281 145.236 155.42 145.2 155.533 145.159 155.641 145.206 155.795 145.341 155.996V155.996L146.563 158.031 148.001 157.09C148.468 156.776 149.087 156.311 149.86 155.695V155.695L150.231 155.797 151.34 157.97C150.196 158.682 149.482 159.133 149.199 159.323V159.323C148.954 159.488 148.542 159.817 147.962 160.312V160.312L148.943 161.808C149.152 162.119 149.327 162.332 149.469 162.447 149.609 162.571 149.749 162.617 149.89 162.587 150.031 162.557 150.23 162.456 150.486 162.284V162.284C151.008 161.933 151.368 161.627 151.564 161.366 151.756 161.1 151.829 160.8 151.783 160.468 151.738 160.136 151.568 159.673 151.274 159.079V159.079ZM157.546 160.491L156.361 158.944C156.688 158.528 156.833 158.159 156.797 157.835 156.76 157.511 156.54 157.134 156.138 156.704V156.704L151.299 151.529C151.002 151.211 150.772 151.019 150.608 150.951 150.439 150.889 150.279 150.929 150.128 151.07V151.07C150.005 151.185 149.897 151.295 149.804 151.401 149.71 151.507 149.649 151.573 149.619 151.601V151.601L149.294 151.561 148.329 150.221 150.524 148.169C150.807 147.903 151.271 147.447 151.913 146.801 152.556 146.154 152.983 145.718 153.194 145.493V145.493C154.814 143.979 156.214 143.274 157.396 143.38 158.582 143.482 159.568 143.953 160.355 144.795V144.795C160.946 145.426 161.328 146.193 161.501 147.094 161.675 147.986 161.624 148.873 161.348 149.755 161.072 150.637 160.594 151.396 159.913 152.032V152.032L158.592 153.267 159.279 154.001C159.681 154.432 160.005 154.675 160.249 154.73 160.499 154.791 160.777 154.677 161.086 154.389V154.389C161.198 154.284 161.299 154.18 161.387 154.079 161.476 153.978 161.535 153.913 161.565 153.886V153.886L161.755 153.928 162.836 155.393C162.622 155.575 162.25 155.9 161.723 156.365 161.2 156.826 160.719 157.263 160.278 157.675V157.675C159.98 157.954 159.506 158.433 158.858 159.113 158.209 159.802 157.772 160.261 157.546 160.491ZM158.059 150.505C158.262 150.104 158.307 149.696 158.193 149.279 158.074 148.858 157.786 148.403 157.329 147.914V147.914C156.857 147.41 156.389 147.164 155.924 147.177 155.46 147.19 154.956 147.45 154.412 147.958V147.958C154.31 148.054 154.262 148.136 154.269 148.202 154.276 148.278 154.341 148.392 154.464 148.543V148.543C155.275 149.509 156.073 150.441 156.858 151.339V151.339ZM170.743 138.746L171.149 138.733C171.969 139.685 172.982 140.732 174.187 141.876V141.876L174.263 142.332C172.727 144.124 171.296 145.862 169.972 147.547V147.547C169.123 148.627 168.263 149.834 167.392 151.169V151.169L165.986 149.821C166.254 149.35 166.343 148.96 166.254 148.651 166.164 148.342 165.872 147.993 165.377 147.604V147.604L159.852 143.234C159.488 142.948 159.228 142.786 159.071 142.748 158.909 142.715 158.756 142.79 158.611 142.975V142.975C158.487 143.133 158.384 143.286 158.301 143.434V143.434L157.917 143.451 156.731 142.277C156.905 142.055 157.045 141.888 157.151 141.776V141.776C158.228 140.449 159.114 139.344 159.81 138.459V138.459C160.621 137.427 161.383 136.419 162.096 135.437 162.803 134.451 163.312 133.705 163.624 133.201V133.201L164.053 133.192C164.439 133.633 164.917 134.136 165.486 134.702 166.06 135.273 166.581 135.759 167.049 136.161V136.161L165.41 138.554 164.819 138.038C164.566 137.839 164.343 137.733 164.15 137.717 163.958 137.702 163.749 137.789 163.523 137.979 163.293 138.164 162.997 138.485 162.637 138.943V138.943C162.455 139.175 162.364 139.351 162.364 139.47 162.358 139.585 162.451 139.717 162.64 139.866V139.866L164.43 141.427 165.508 140.088C165.856 139.646 166.302 139.013 166.848 138.189V138.189L167.232 138.172 168.956 139.897C168.087 140.927 167.546 141.576 167.335 141.845V141.845C167.153 142.076 166.862 142.517 166.463 143.166V143.166L167.857 144.287C168.151 144.519 168.384 144.667 168.554 144.733 168.725 144.808 168.873 144.809 168.998 144.737 169.123 144.665 169.281 144.508 169.471 144.265V144.265C169.86 143.77 170.108 143.368 170.214 143.06 170.315 142.747 170.293 142.44 170.147 142.138 170.001 141.836 169.697 141.447 169.235 140.973V140.973ZM178.885 134.254L178.636 134.314 177.138 133.366C177.321 132.916 177.432 132.611 177.474 132.45 177.521 132.293 177.523 132.176 177.481 132.1 177.432 132.02 177.323 131.934 177.152 131.842V131.842L176.797 131.695 176.015 131.409 175.204 132.822C175.106 133.004 174.872 133.514 174.503 134.35V134.35L175.215 134.976C175.39 135.116 175.516 135.207 175.593 135.249V135.249C175.752 135.335 175.87 135.357 175.946 135.314 176.031 135.269 176.141 135.123 176.275 134.875V134.875L176.533 134.398 176.8 134.348 178.248 135.326C178.137 135.502 177.928 135.861 177.619 136.403 177.311 136.944 176.989 137.524 176.654 138.143V138.143L175.342 140.609 173.801 139.615C173.931 139.106 173.763 138.608 173.296 138.119V138.119L165.602 130.148 167.942 125.13 168.311 124.976C169.179 125.202 170.885 125.638 173.43 126.285 175.975 126.931 177.726 127.369 178.684 127.598V127.598C179.163 127.712 179.541 127.738 179.819 127.675 180.102 127.616 180.334 127.448 180.514 127.172V127.172L180.767 127.149 182.143 128.088C182.051 128.259 181.862 128.595 181.576 129.095 181.293 129.589 181 130.116 180.697 130.676V130.676C180.304 131.4 179.926 132.129 179.56 132.86 179.198 133.586 178.973 134.05 178.885 134.254ZM172.49 132.495L173.002 131.549C173.107 131.355 173.27 131.028 173.488 130.567V130.567L169.91 129.452 169.69 129.859ZM182.923 126.373L181.156 125.558C181.304 124.985 181.377 124.545 181.373 124.237 181.376 123.932 181.283 123.685 181.094 123.497 180.903 123.314 180.597 123.148 180.174 122.996V122.996L173.089 120.455C172.958 120.821 172.926 121.119 172.993 121.35 173.062 121.574 173.268 121.793 173.611 122.009 173.945 122.228 174.497 122.515 175.266 122.869V122.869L174.548 125.377C173.033 124.741 171.321 124.067 169.413 123.354V123.354L169.231 123 170.293 120.723 172.521 114.509 173.162 112.037 173.531 111.871C175.772 112.646 177.461 113.216 178.597 113.581V113.581L177.876 116.098C176.939 115.833 176.27 115.675 175.868 115.623 175.463 115.563 175.172 115.591 174.996 115.705 174.819 115.82 174.664 116.064 174.531 116.436V116.436C176.911 117.36 179.315 118.258 181.742 119.128V119.128C182.247 119.309 182.627 119.36 182.883 119.281 183.146 119.205 183.345 118.977 183.48 118.599V118.599C183.566 118.359 183.665 118.014 183.777 117.563V117.563L183.937 117.503 185.736 118.351C185.03 120.062 184.509 121.387 184.172 122.327V122.327C183.86 123.197 183.444 124.546 182.923 126.373ZM19.457 92.546C19.457 91.413 20.376 90.494 21.509 90.494 22.642 90.494 23.561 91.413 23.561 92.546 23.561 93.68 22.642 94.599 21.509 94.599 20.376 94.599 19.457 93.68 19.457 92.546ZM182.084 92.546C182.084 91.413 183.002 90.494 184.136 90.494 185.269 90.494 186.188 91.413 186.188 92.546 186.188 93.68 185.269 94.599 184.136 94.599 183.002 94.599 182.084 93.68 182.084 92.546Z" fill="#010c80" data-fill-palette-color="primary"></path></svg></g></svg></g></svg></g></svg></g></svg></g></svg></g><defs></defs></svg><rect width="320" height="360" fill="none" stroke="none" visibility="hidden"></rect></g></svg></g></svg>